<svg xmlns="http://www.w3.org/2000/svg" id="Layer_2" data-name="Layer 2" viewBox="0 0 280.55 203.05"><defs><style> .cls-1 { fill: #999; } .cls-1, .cls-2, .cls-3, .cls-4, .cls-5, .cls-6, .cls-7 { stroke-width: 0px; } .cls-1, .cls-2, .cls-4, .cls-5, .cls-6, .cls-7 { fill-rule: evenodd; } .cls-2 { fill: #898989; } .cls-3, .cls-8, .cls-7 { fill: #000; } .cls-9 { font-family: FriedDayInner-Regular, 'Fried Day Inner'; font-size: 13px; } .cls-9, .cls-10, .cls-6 { fill: #fff; } .cls-4 { fill: #939393; } .cls-8 { font-size: 18px; letter-spacing: .17em; } .cls-8, .cls-10 { font-family: Grenze-BlackItalic, Grenze; font-style: italic; font-weight: 800; } .cls-5 { fill: #b4915b; } .cls-10 { font-size: 16px; letter-spacing: .17em; } </style></defs><g id="Layer_1-2" data-name="Layer 1"><polygon class="cls-6" points="26.06 93.79 254.49 93.79 262.34 100.39 262.34 142.98 254.49 149.58 26.06 149.58 18.21 142.98 18.21 100.39 26.06 93.79"></polygon><polygon class="cls-6" points="152.85 192.1 149.69 197.58 146.53 203.05 140.21 203.05 133.89 203.05 130.74 197.58 127.58 192.1 130.74 186.63 133.89 181.16 140.21 181.16 146.53 181.16 149.69 186.63 152.85 192.1"></polygon><path class="cls-5" d="M177.35,59.65c.18.23.35.46.52.69-.18,0-.35,0-.52-.01v-.68Z"></path><path class="cls-4" d="M169.69,47.2c-.6-.4-1.21-.79-1.83-1.17-8.34-5.11-17.82-7.74-27.6-7.74s-19.26,2.63-27.6,7.74c-4.49,2.75-8.54,6.15-12.01,10.06-1.11.35-2.19.72-3.24,1.13,4.1-5.63,9.29-10.43,15.25-14.08,8.34-5.11,17.83-7.74,27.6-7.74s19.26,2.63,27.6,7.74c1.67,1.02,3.27,2.13,4.81,3.32-.29.04-.57.1-.86.18l-1.65.43c-.16.04-.31.09-.46.14Z"></path><path class="cls-6" d="M145.72,66.02c-2.32,0-4.2,3.16-4.2,7.07s1.88,7.07,4.2,7.07,4.2-3.16,4.2-7.07-1.88-7.07-4.2-7.07h0ZM72.49,87.14c-.58,0-1.05-.47-1.05-1.05s.47-1.06,1.05-1.06h10.35c1.68-.74,3.27-2.06,4.11-3.4-1.68-2.22-2.95-5.45-3.31-8.68-.77-.69-1.27-1.81-1.27-3.07,0-1.66.87-3.08,2.08-3.58.03-.07.06-.14.09-.21,1.01-2.12,3.28-4.66,8.35-4.66,1.16,0,2.44.14,3.79.4,5.01-2.3,14.64-4.95,25.63-4.95.38,0,.76,0,1.14,0,2.51-4.94,9.1-5.34,11.1-5.34,1.55,0,3.12.09,4.67.26,2.42-.76,12.39-3.67,22.59-3.19.86.04,1.62.47,2.1,1.19.47.71.55,1.61.29,2.42-.15.45-.3.91-.46,1.38h.86c.24-.39.61-.65,1.04-.65.72,0,1.3.73,1.3,1.63s-.58,1.63-1.3,1.63-1.3-.73-1.3-1.63c0-.06,0-.12,0-.17l-1.12.7c-.4,1.13-.8,2.2-1.15,3.02.6.23,1.18.45,1.76.67.44.17.88.33,1.31.5.41-.62,1.15-1.73,1.59-2.37.22-.33.57-.56.96-.63l.26-.05v-1.17c0-1.96,1.33-3.68,3.22-4.18l1.65-.44c1.31-.34,2.67-.07,3.74.76,1.07.83,1.68,2.07,1.68,3.42v5.85c2.07.16,4.34.41,6.82.19,1.6-.52,3.26-.93,5.01-.93,2.83,0,4.98.92,6.4,2.73,1.07,1.37,1.66,3.22,1.75,5.29.05,1.23-.08,2.55-.39,3.88.77,1.97.23,6.1-1.38,8.31-.78,2.39-2.34,4.24-4.25,5.02h15.84c.58,0,1.05.47,1.05,1.06s-.47,1.05-1.05,1.05H72.49ZM101.15,85.03c-7.16-.59-10.08-7.51-10.08-10.88,0-3,1.95-8.34,6.78-11.08,4.66-2.65,13.6-5.09,24.48-5.07-1.14.86-1.91,2.41-1.91,4.19,0,2.21,1.19,4.08,2.81,4.69.78.67,1.74,1.06,2.77,1.06,2.65,0,4.8-2.58,4.8-5.75s-2.15-5.75-4.8-5.75c-.37,0-.74.05-1.09.15,2.52-3.61,7.91-3.92,9.62-3.92,10.05,0,20.5,3.98,28.89,7.18,0,0,.01,0,.02,0,1.04.4,1.73,1.4,1.73,2.51v1.15c-2.49-.71-4.49-1.41-6.22-1.79-.48-.1-.86.41-.62.84,1.58,2.87,2.07,8.31-.25,11.78-.06.09-.21.02-.18-.08.49-1.54.75-3.19.75-4.82,0-.3,0-.59-.02-.88,0-.07,0-.14-.01-.21,0-.2-.03-.4-.04-.6-.01-.16-.03-.32-.05-.48,0-.06-.01-.11-.02-.17-1.12-8.37-8.21-12.04-13.48-12.04-4.54,0-7.28,2.39-8.88,4.28-1.97-.46-3.27.17-4.07.67,1,10.95-7.6,9.47-8.99,8.43-.87.7-3.56,2.04-5,2.09.26,6.95-4.65,8.17-6.13,8.34-1.48.17-10.51.95-12.77,1.09-2.1.12-3.91-.36-5.3-1.52-.08-.06-.18.02-.14.11,1.78,3.87,5.6,5.05,7.87,5.05h20.9c6.22,0,9.27-5.22,9.92-7.25.03-.08-.07-.15-.14-.1-1.02.75-1.78.19-1.78-.7,0-.78,1.22-2.87,1.56-4.91.44-2.6.09-4.26,1.17-4.3,1.14-.05,2.04,1.83,1.82,4.26-.3,3.36-1.19,7.71-4.68,11.55-1.98,1.57-4.53,2.63-7.99,2.84h-21.26ZM169.05,55.1v.97l4.13-.75c.65-.12,1.32.11,1.76.6l.54.6c.33.36.5.84.48,1.33-.04.75.02,1.94-.1,2.56.41,0,.84.02,1.27.04v-5.78c0-1-.46-1.93-1.25-2.54-.8-.61-1.81-.82-2.78-.56l-1.65.43c-1.41.37-2.4,1.65-2.4,3.11h0ZM173.92,62.3c.41-1.47.61-3.78.53-4.87,0-.11-.16-.12-.19-.01-.37,1.64-.78,3.61-1.2,4.66.29.08.58.16.86.23h0ZM175.35,63.72c-2.53-.41-6.34-1.82-9.95-3.18.48.54.56,1.22.59,1.87.02.4,0,.85,0,1.34v13.33c0,1.38,1.14,2.48,2.51,2.43l4.31-.15c2.38-.08,4.26-2.03,4.26-4.41v-.96l-.28,1.23c-.43,1.88-1.75,3.08-3.68,3.16l-4.14.17c-1.05.04-1.93-.8-1.93-1.85l-.05-12.72v-1.22l.44.62c.39.56.98.95,1.65,1.09,2.3.5,4.71.89,7.84,1.08,0-.91-.66-1.69-1.55-1.84h0ZM175.21,71.11c0-2.79-1.39-5.05-3.1-5.05s-3.1,2.26-3.1,5.05,1.39,5.05,3.1,5.05,3.1-2.26,3.1-5.05h0ZM161.77,49.38c-8.54-.4-16.92,1.6-20.74,2.68.38.06.76.12,1.15.18,4.07-1.07,11.38-2.61,18.81-2.26.59.03,1.12.32,1.45.81.33.49.42,1.09.23,1.65-.57,1.73-1.27,3.78-1.86,5.24.18.07.37.14.55.21.66-1.52,1.48-3.95,2.15-5.97.19-.58.1-1.2-.24-1.7-.35-.5-.9-.81-1.51-.84h0ZM123.6,58.16c-1.06.34-1.92,1.36-2.27,2.68-.12.43-.18.88-.18,1.36s.06.93.18,1.36c.35,1.32,1.21,2.34,2.27,2.68.25.08.5.12.76.12.42,0,.82-.11,1.19-.3-1.33.1-2.96-.95-3.04-2.85,0-.09.12-.13.17-.05.99,1.51,4.9,1.69,4.9-.96,0-2.29-1.44-4.16-3.22-4.16-.26,0-.52.05-.76.12h0ZM124.97,57.36c1.9.36,3.36,2.39,3.36,4.84.32.13.75.17,1.12.1.37-.06.62-.41.58-.78-.27-2.44-1.97-4.33-4.02-4.33-.36,0-.7.06-1.03.17h0ZM85.41,73.1c.33,0,.63-.08.92-.23-1.02.08-2.29-.73-2.35-2.2,0-.07.09-.1.13-.04.77,1.17,3.79,1.31,3.79-.74,0-1.77-1.12-3.22-2.49-3.22-.2,0-.4.03-.59.1-.26.08-.5.22-.72.4-.48.39-.85.97-1.03,1.67-.09.33-.14.68-.14,1.05s.05.72.14,1.05c.1.39.27.75.48,1.06.33.49.77.85,1.28,1.01.19.06.39.1.59.1h0ZM88.2,79.44c.77,0,1.39-.73,1.39-1.63s-.62-1.63-1.39-1.63-1.39.73-1.39,1.63.62,1.63,1.39,1.63h0ZM89.33,69.96c.28-.05.48-.32.45-.6-.21-1.89-1.52-3.35-3.11-3.35-.28,0-.54.05-.8.13,1.47.28,2.59,1.85,2.59,3.74.24.1.58.13.87.08h0ZM147.44,60.86h0c-1.12,0-2.2.26-3.2.74.98-.66,2.12-1.13,3.48-1.35,3.95.06,9.58,2.58,9.36,12.9-.1.41-.23.82-.37,1.21.03-.4.04-.81.04-1.22,0-6.79-4.17-12.29-9.32-12.29h0ZM127.05,73.03c0-1.32-.92-2.39-2.04-2.39s-2.04,1.07-2.04,2.39.91,2.39,2.04,2.39,2.04-1.07,2.04-2.39h0ZM134.77,76.25h0c1.07-2.61,1.93-5.58,2.83-8.57,2.05-6.77,6.64-8.81,9.92-9.63.03,0,.03-.06,0-.06-1.08.03-2.57.24-3.57.6,0,0-.13-.22-.65-.74,0,0,.29-.51.78-.9.02-.02,0-.06-.03-.05-3.58,1.15-6.52,4.64-7.97,9.66-.05.17-.3.13-.29-.04.32-6.11,5.37-10.54,9.38-10.54,5.08,0,8.17,2.17,10.11,4.87-1.3-1.08-3.12-1.86-5.68-1.86-7.67,0-10,5.87-12.46,12.08-.7,1.77-1.41,3.55-2.25,5.23-.04.07-.15.02-.11-.05h0ZM144.39,84.9h0c-4.47-.41-7.17-6.07-7.73-9.78.56-1.26,1.07-2.54,1.56-3.78-.07.59-.1,1.19-.1,1.81,0,5.39,2.64,9.97,6.31,11.63.07.03.04.14-.03.13h0ZM147.44,82.34h0c-3.85,0-6.97-4.12-6.97-9.19s3.12-9.19,6.97-9.19,6.97,4.12,6.97,9.19-3.12,9.19-6.97,9.19h0ZM181.68,83.05c.1-.62-.42-1.14-1.11-1.39,1.05-1.71,1.93-3.92,2.84-6.09,1.73-4.13,3.55-8.1,6.78-8.1.13,0,.25,0,.38.01,2.5.11,4.11,1.29,4.9,2.04.11.1.27-.02.21-.16-.65-1.27-2.07-2.81-5.4-2.81-5.63,0-7.37,9.07-10.58,14.72-.53-.2-.96-.31-.96-.31-.07-.13,0-5.08,0-5.08.68.65,1.79,1.11,2.58-1.08.78-2.18,2.25-6.35.19-7.2-1.26-.52-1.99.18-2.36.92-.08.15-.31.1-.31-.07,0-1.52.06-2.97-.22-3.6,1.79-.42,5.34-1.25,6.25-1.8.91-.55,1.66.16,1.76,1.04.04.39-.11,1.18-.3,1.94-.14.59.49,1.06,1.01.74,1.53-.92,3.45-1.45,5.64-.54-1.19-2.2-.81-3.16.02-3.53.78-.36,2.19.36,2.95.99-.1-.17-.22-.33-.34-.49-1.2-1.53-3.06-2.31-5.53-2.31-2.28,0-4.46.78-6.57,1.53-1.88.67-4.48,1.47-6.48,1.49,0,0,.69.54.69,1.69v15.12c-5.71,0-18.24,3.37-22.01-1.86-.6,1.49-1.42,2.81-2.41,3.86-.09.1.02.25.14.19.98-.46,1.86-1.26,2.47-2.15,1.39,1.14,5.53,2.93,11.06,2.56.08,0,.09-.12,0-.14-.71-.16-1.42-.39-1.78-.51-.04-.01-.03-.08.02-.08,3.5.09,9.97-1.3,12.86-.62-1.26.59-1.76,2.27-.81,2.73-.02-.03-.05-.06-.07-.09-.02-.02-.03-.05-.05-.08,0,0,0-.02-.01-.03-.04-.09-.05-.18-.06-.28,0-.55.56-1.24,1.43-1.66.17-.08.35-.15.52-.2.22-.07.43-.11.64-.13.19-.01.37,0,.53.02.33.06.59.21.71.45.13.27.07.6-.13.93-.14.22-.34.45-.6.65-.18.14-.39.28-.63.39-.11.05-.22.1-.33.14,1.42-.26,2.39-1.12,2.49-1.78h0ZM192.17,82.64c.76-.43,1.43-1.09,1.95-1.92.73-1.16,1.16-2.65,1.16-4.27,0-3.71-2.28-6.72-5.1-6.72s-5.1,3.01-5.1,6.72,2.28,6.72,5.1,6.72c.7,0,1.37-.19,1.99-.53h0ZM188.92,71.24c-1.7,0-3.07,2.31-3.07,5.17s1.38,5.17,3.07,5.17,3.07-2.31,3.07-5.17-1.37-5.17-3.07-5.17h0ZM191.09,76.64c0-.73-.45-1.32-1-1.32s-1,.59-1,1.32.45,1.32,1,1.32,1-.59,1-1.32h0ZM94.36,68.05c1.1-.88,2.23-1.34,3-1.5.87-.17,11.64-2.48,13.03-2.78,1.3-.28,4.67.35,6.48,2.72.25.32.67.47,1.07.37.82-.19,1.53-.52,1.97-.79-.62-1.37-1.33-3.89-.21-6.28.05-.11-.07-.21-.17-.14-1.1.77-1.61,2.92-2.66,3.25-1.26.39-3.26-1-6.82-.17-1.79.42-8.58,1.9-11.29,2.49-.4.09-.68-.39-.4-.7.28-.31.6-.61.89-.85.08-.06,0-.18-.09-.15-1.73.65-4.02,2.78-4.95,4.39-.06.1.06.2.15.13h0ZM99.19,78.74l12.38-1.02c2.92-.24,5.17-2.68,5.17-5.62v-1.6c0-3.58-3.3-6.26-6.81-5.51l-12.38,2.63c-2.61.55-4.47,2.85-4.47,5.52,0,3.3,2.82,5.89,6.1,5.62h0ZM148.68,73.41h0c0,1-.61,1.8-1.37,1.8s-1.37-.81-1.37-1.8.61-1.8,1.37-1.8,1.37.81,1.37,1.8Z"></path><path class="cls-1" d="M279.51,101.74h-15.83v39.89h15.83c.36,0,.67-.14.86-.39.2-.25.23-.55.09-.83l-9.17-18.72,9.17-18.72c.14-.28.1-.58-.09-.83-.2-.25-.51-.39-.86-.39h0ZM1.04,101.74h15.83v39.89H1.04c-.36,0-.67-.14-.87-.39-.2-.25-.23-.55-.09-.83l9.17-18.72L.08,102.97c-.14-.28-.1-.58.09-.83.2-.25.51-.39.87-.39Z"></path><path class="cls-2" d="M151.37,199.07h5.35l3.84-3.87h-6.96l-2.23,3.87h0ZM129.06,199.07h-5.35l-3.84-3.87h6.96l2.23,3.87h0ZM126.83,189.01h-13.13l-3.84-3.87h19.2l-2.23,3.87h0ZM126.22,194.16h-7.4l-4.08-4.11h11.48l-1.19,2.05,1.19,2.05h0ZM153.6,189.01h13.13l3.84-3.87h-19.2l2.23,3.87h0ZM154.2,194.16h7.4l4.08-4.11h-11.48l1.19,2.05-1.19,2.05Z"></path><g><path class="cls-3" d="M40.52,133.39c2.06,0,2.96-1.36,2.96-3.31v-3.31c0-5.1-9.84-3.03-9.84-9.84v-3.31c0-4.08,2.99-5.6,6.14-5.6,1.56,0,3.15.31,4.43,1.75h.15l.31-1.48h2.64v7.31h-4.01v-1.98c0-1.95-1.05-2.99-2.88-2.99s-2.76,1.13-2.76,2.99v3.31c0,4.71,9.92,2.61,9.92,9.8v3.35c0,4.32-3.58,5.95-7.27,5.95s-6.96-1.83-6.96-5.99v-2.14h4.39v2.18c0,2.33,1.01,3.31,2.76,3.31Z"></path><path class="cls-3" d="M70.36,136.04v-1.16l1.8-1.2v-23.57l-1.52-1.04v-1.04h14.22v6.27h-2l-1.12-3.92h-5.43v10.5h3.84l1.04-2.2h1.2v6.75h-1.2l-1.04-2.12h-3.84v8.83c0,.64-.16,1-.84,1.24v.2h6.79l1.36-3.83h1.76v6.27h-15.02Z"></path><path class="cls-3" d="M50.4,109.2v-1.16h7.07v1.16l-1.52,1.04v10.39h6.47v-10.39l-1.52-1.04v-1.16h7.07v1.16l-1.52,1.04v23.69l1.8.96v1.16h-7.59v-1.16l1.76-.96v-11.02h-6.47v11.02l1.8.96v1.16h-7.63v-1.16l1.8-.96v-23.69l-1.52-1.04Z"></path><path class="cls-3" d="M88.16,136.04v-1.16l1.8-1.2v-23.45l-1.52-1.04v-1.16h7.19v1.16l-1.52,1.04v21.93c0,.64-.16,1-.84,1.24v.2h6.39l1.36-3.83h1.76v6.27h-14.62Z"></path><path class="cls-3" d="M121.3,130.36c0,4-2.44,5.68-7.12,5.68h-9.16v-1.16l1.8-1.2v-23.48l-1.52-1.04v-1.12h8.84c3.72,0,6.32,1,6.32,5.12v4.04c0,1.56-.8,3.08-2.24,3.68,1.84.72,3.08,2.16,3.08,4.76v4.72ZM114.1,133.64c2.12,0,3.04-1.2,3.04-3.28v-4.72c0-2.32-.92-3.44-3.4-3.44h-2.88v9.92c0,.72-.16,1.08-.84,1.32v.2h4.08ZM116.3,117.2v-4.04c0-1.52-.84-2.8-2.48-2.8h-2.96v9.84h2.96c1.76,0,2.48-1.16,2.48-3Z"></path><path class="cls-3" d="M130.24,123.72l-5.8-14.12-1.12-.4v-1.16h3.6c1.44,0,1.76.4,2.24,1.64l3.84,9.92,3.84-9.68-1.52-.76v-1.12h5.76v1.12l-1.48.76-5.16,13.28v10.28l1.76,1.24v1.32h-7.72v-1.32l1.76-1.24v-9.76Z"></path></g><path class="cls-7" d="M151.68,129.61c-.37.52-.75,1.17-.97,1.95-.09.39-.17.8-.12,1.24.03.44.15.89.45,1.33.29.44.72.89,1.34,1.22.62.34,1.45.56,2.36.57,2.68.06,5.25-1.35,6.38-2.58.73-.8,1.19-1.73,1.41-2.7.3-1.4.22-2.89-.19-4.39-.76-3.01-2.92-5.7-4.78-8.18-.92-1.25-1.81-2.45-2.25-3.68-.21-.62-.29-1.24-.15-1.84.18-.6.51-1.16,1.11-1.63.6-.46,1.52-.82,2.54-.86,1.03-.04,1.91.27,2.42.62.51.37.75.77.86,1.13.11.37.1.71.02,1-.17.61-.62,1.01-.95,1.26-.34.25-.58.34-.62.32-.05-.02.11-.16.35-.42.22-.26.56-.66.61-1.2.03-.27-.01-.57-.15-.88-.13-.31-.38-.64-.8-.9-.41-.25-1.03-.43-1.66-.38-.64.04-1.27.29-1.71.66-.44.37-.69.86-.81,1.35-.08.51.01,1.05.23,1.61.45,1.12,1.35,2.29,2.3,3.51.96,1.23,2.01,2.53,2.92,3.92.23.35.45.7.65,1.06.22.36.41.72.59,1.1.34.75.65,1.51.85,2.29.44,1.56.51,3.13.17,4.63-.25,1.01-.74,2-1.54,2.88-1.4,1.55-4.52,3.14-7.85,3.02-1.24-.03-2.39-.37-3.16-.82-.79-.46-1.23-.99-1.54-1.51-.31-.52-.4-1.04-.39-1.52-.01-.48.12-.93.26-1.34.32-.82.81-1.48,1.28-2,.96-1.04,1.81-1.49,1.88-1.46.11.04-.57.56-1.32,1.6h0ZM156.53,123.8c-.64-.48-1.42-.91-2.25-1.21-.86-.3-1.89-.51-2.94-.42-1.98.16-2.85,1.29-2.63,2.31.17.8.81,1.33,1.28,1.65.49.32.85.43.92.39.08-.04-.13-.24-.43-.58-.29-.34-.69-.86-.7-1.5-.02-.61.47-1.42,1.73-1.48.61-.04,1.33.1,1.97.34.71.27,1.37.65,1.92,1.08,1.02.8,1.53,1.69,1.79,2.65.2.76.22,1.53.14,2.29-.18,1.39-.54,2.26-.31,2.3.17.03.91-.78,1.37-2.23.26-.85.33-1.72.15-2.58-.23-1.1-.83-2.11-2.01-3.01h0ZM156.22,107.03h0c-.05-.06-.78.09-1.78.54-1.58.71-2.71,1.6-3.49,2.64-.69.93-1.15,2.03-1.17,3.21,0,1.07.29,2.09.74,2.97.71,1.32,1.72,2.52,3.22,3.61.43.3.7.45.79.41.09-.03-.02-.24-.29-.59-.99-1.21-1.8-2.34-2.38-3.64-.35-.84-.57-1.78-.57-2.76,0-.98.33-1.91.79-2.71.49-.97,1.58-1.94,2.73-2.72.87-.59,1.51-.89,1.4-.98Z"></path><g><path class="cls-3" d="M206.56,128.78c0,4.38-3.03,7.25-7.8,7.25s-7.76-2.91-7.76-7.25v-13.5c0-4.34,3.02-7.25,7.76-7.25s7.8,2.87,7.8,7.25v13.5ZM195.04,128.78c0,3.02,1.16,4.65,3.72,4.65s3.8-2.13,3.8-4.65v-13.5c0-2.56-1.2-4.65-3.8-4.65s-3.72,1.59-3.72,4.65v13.5Z"></path><path class="cls-3" d="M180.42,133.39c2.06,0,2.96-1.36,2.96-3.31v-3.31c0-5.1-9.84-3.03-9.84-9.84v-3.31c0-4.08,2.99-5.6,6.14-5.6,1.56,0,3.15.31,4.43,1.75h.15l.31-1.48h2.64v7.31h-4.01v-1.98c0-1.95-1.05-2.99-2.88-2.99s-2.76,1.13-2.76,2.99v3.31c0,4.71,9.92,2.61,9.92,9.8v3.35c0,4.32-3.58,5.95-7.27,5.95s-6.96-1.83-6.96-5.99v-2.14h4.39v2.18c0,2.33,1.01,3.31,2.76,3.31Z"></path><path class="cls-3" d="M217.22,134.8v1.24h-6.23v-1.24l1.68-1.04v-23.53l-1.52-1.04v-1.16h4.71c1.76,0,2.08.16,2.52,1.68l3.91,12.46,1.8,7.83h.08c0-2.04-.16-4.71-.16-6.75v-12.94l-1.52-1.04v-1.24h5.87v1.24l-1.52,1.04v25.72h-3.44c-.96,0-1.48-.56-1.72-1.36l-6.51-22.37-.12.04.48,3.99v17.42l1.68,1.04Z"></path><path class="cls-3" d="M238.12,133.39c2.06,0,2.96-1.36,2.96-3.31v-3.31c0-5.1-9.84-3.03-9.84-9.84v-3.31c0-4.08,2.99-5.6,6.14-5.6,1.56,0,3.15.31,4.43,1.75h.15l.31-1.48h2.64v7.31h-4.01v-1.98c0-1.95-1.05-2.99-2.88-2.99s-2.76,1.13-2.76,2.99v3.31c0,4.71,9.92,2.61,9.92,9.8v3.35c0,4.32-3.58,5.95-7.27,5.95s-6.96-1.83-6.96-5.99v-2.14h4.39v2.18c0,2.33,1.01,3.31,2.76,3.31Z"></path></g><text class="cls-10" transform="translate(68.27 170.4)"><tspan x="0" y="0">TITLE COMPANY</tspan></text><text class="cls-8" transform="translate(135.45 196.79)"><tspan x="0" y="0">S</tspan></text><text class="cls-9" transform="translate(76.11 57.71) rotate(-58.52) scale(1.05 1)"><tspan x="0" y="0">a</tspan></text><text class="cls-9" transform="translate(80.65 50.6) rotate(-51.74) scale(1.05 1)"><tspan x="0" y="0"> </tspan></text><text class="cls-9" transform="translate(85.57 44.4) rotate(-43.58) scale(1.05 1)"><tspan x="0" y="0">m</tspan></text><text class="cls-9" transform="translate(94.61 36.17) rotate(-34.81) scale(1.05 1)"><tspan x="0" y="0">o</tspan></text><text class="cls-9" transform="translate(102.96 30.57) rotate(-27.08) scale(1.05 1)"><tspan x="0" y="0">n</tspan></text><text class="cls-9" transform="translate(111.94 26.18) rotate(-19.68) scale(1.05 1)"><tspan x="0" y="0">t</tspan></text><text class="cls-9" transform="translate(120.89 23.17) rotate(-12.93) scale(1.05 1)"><tspan x="0" y="0">a</tspan></text><text class="cls-9" transform="translate(129.12 21.38) rotate(-6.06) scale(1.05 1)"><tspan x="0" y="0">n</tspan></text><text class="cls-9" transform="translate(139.09 20.52) rotate(.76) scale(1.05 1)"><tspan x="0" y="0">a</tspan></text><text class="cls-9" transform="translate(147.56 20.79) rotate(6.49) scale(1.05 1)"><tspan x="0" y="0"> </tspan></text><text class="cls-9" transform="translate(155.48 21.85) rotate(12.33) scale(1.05 1)"><tspan x="0" y="0">c</tspan></text><text class="cls-9" transform="translate(162.78 23.51) rotate(18.8) scale(1.05 1)"><tspan x="0" y="0">o</tspan></text><text class="cls-9" transform="translate(172.27 26.84) rotate(27.11) scale(1.05 1)"><tspan x="0" y="0">m</tspan></text><text class="cls-9" transform="translate(183.05 32.69) rotate(34.96) scale(1.05 1)"><tspan x="0" y="0">p</tspan></text><text class="cls-9" transform="translate(190 37.73) rotate(41.46) scale(1.05 1)"><tspan x="0" y="0">a</tspan></text><text class="cls-9" transform="translate(196.24 43.38) rotate(48.54) scale(1.05 1)"><tspan x="0" y="0">n</tspan></text><text class="cls-9" transform="translate(202.72 50.97) rotate(56.2) scale(1.05 1)"><tspan x="0" y="0">y</tspan></text></g></svg>